<svg width="521" height="417" viewBox="0 0 521 417" fill="none" xmlns="http://www.w3.org/2000/svg">
<g id="undraw_Bookshelves_re_lxoy 1" clip-path="url(#clip0)">
<g id="plant2">
<path id="Vector" d="M186.176 314.605C187.754 310.847 187.927 306.653 186.665 302.779C185.403 298.906 182.789 295.609 179.295 293.484C178.131 292.781 179.195 290.959 180.364 291.666C184.372 294.044 187.363 297.801 188.771 302.224C190.18 306.647 189.907 311.43 188.006 315.668C187.471 316.91 185.646 315.838 186.176 314.605H186.176Z" fill="#3F3D56"/>
<path id="Vector_2" d="M185.57 317.437C188.428 312.405 187.756 306.382 186.728 300.94C185.655 295.259 184.248 289.491 185.465 283.713C186.017 280.908 187.324 278.304 189.246 276.178C190.171 275.179 191.667 276.671 190.744 277.667C187.15 281.547 186.733 287.176 187.316 292.175C188.004 298.071 189.952 303.816 189.71 309.808C189.647 312.847 188.855 315.827 187.4 318.5C187.253 318.731 187.022 318.896 186.755 318.961C186.488 319.026 186.206 318.985 185.968 318.847C185.731 318.709 185.557 318.485 185.483 318.222C185.408 317.959 185.44 317.678 185.57 317.437L185.57 317.437Z" fill="#3F3D56"/>
<path id="Vector_3" d="M187.689 270.353C186.931 274.354 187.87 277.888 189.787 278.247C191.703 278.606 193.872 275.654 194.63 271.653C195.389 267.653 193.056 261 193.056 261C193.056 261 188.448 266.353 187.689 270.353Z" fill="#6C63FF"/>
<path id="Vector_4" d="M173.145 288.966C175.546 292.263 178.774 294.015 180.354 292.878C181.934 291.742 181.267 288.147 178.866 284.849C176.464 281.551 170 278.662 170 278.662C170 278.662 170.743 285.668 173.145 288.966Z" fill="#6C63FF"/>
</g>
<path id="Vector_5" d="M205.528 335.215H169.508C168.665 335.214 167.857 334.881 167.261 334.288C166.666 333.696 166.33 332.893 166.329 332.056V321.539C166.333 318.837 167.414 316.246 169.337 314.335C171.259 312.424 173.866 311.349 176.585 311.346H181.868C182.149 311.346 182.418 311.235 182.616 311.037C182.815 310.84 182.927 310.572 182.927 310.293V305.379C182.928 304.913 183.114 304.467 183.445 304.138C183.776 303.809 184.225 303.624 184.693 303.624H190.343C190.811 303.624 191.26 303.809 191.591 304.138C191.922 304.467 192.108 304.913 192.109 305.379V310.293C192.109 310.572 192.221 310.84 192.419 311.037C192.618 311.235 192.887 311.346 193.168 311.346H198.451C201.17 311.349 203.777 312.424 205.699 314.335C207.622 316.246 208.703 318.837 208.706 321.539V332.056C208.705 332.893 208.37 333.696 207.774 334.288C207.179 334.881 206.371 335.214 205.528 335.215Z" fill="#3F3D56"/>
<g id="plant1">
<path id="Vector_6" d="M123.194 63.5846C121.617 59.8271 121.443 55.6329 122.705 51.7595C123.968 47.8862 126.582 44.5892 130.076 42.4642C131.239 41.761 130.176 39.939 129.006 40.6457C124.999 43.0242 122.007 46.7807 120.599 51.204C119.191 55.6274 119.463 60.4104 121.365 64.6475C121.899 65.8899 123.725 64.8182 123.194 63.5846H123.194Z" fill="#3F3D56"/>
<path id="Vector_7" d="M123.8 66.4171C120.942 61.3847 121.615 55.3624 122.643 49.9204C123.716 44.2394 125.123 38.4714 123.905 32.6935C123.353 29.8883 122.047 27.2842 120.125 25.1582C119.199 24.159 117.704 25.6513 118.626 26.6475C122.221 30.5275 122.637 36.1562 122.054 41.155C121.367 47.051 119.418 52.7964 119.66 58.7877C119.723 61.8266 120.515 64.8067 121.971 67.4801C122.117 67.7112 122.349 67.8765 122.616 67.9413C122.883 68.0061 123.165 67.9652 123.402 67.8273C123.64 67.6894 123.814 67.4653 123.888 67.2022C123.962 66.9391 123.931 66.6576 123.8 66.4171L123.8 66.4171Z" fill="#3F3D56"/>
<path id="Vector_8" d="M121.681 19.3334C122.439 23.334 121.5 26.8681 119.584 27.227C117.667 27.586 115.499 24.6338 114.74 20.6332C113.982 16.6326 116.314 9.98003 116.314 9.98003C116.314 9.98003 120.923 15.3327 121.681 19.3334Z" fill="#6C63FF"/>
<path id="Vector_9" d="M136.226 37.9456C133.824 41.2433 130.597 42.995 129.017 41.8583C127.437 40.7216 128.103 37.1268 130.505 33.8291C132.906 30.5314 139.37 27.6418 139.37 27.6418C139.37 27.6418 138.627 34.6479 136.226 37.9456Z" fill="#6C63FF"/>
</g>
<path id="Vector_10" d="M139.138 82.4874H103.117C102.275 82.4864 101.467 82.1533 100.871 81.5611C100.275 80.9688 99.9398 80.1658 99.9389 79.3283V68.8117C99.942 66.1093 101.023 63.5184 102.946 61.6075C104.868 59.6967 107.475 58.6218 110.194 58.6187H115.477C115.758 58.6184 116.027 58.5073 116.226 58.3099C116.425 58.1125 116.536 57.8448 116.537 57.5657V52.6515C116.537 52.1862 116.723 51.7401 117.054 51.4111C117.385 51.0821 117.834 50.897 118.302 50.8965H123.952C124.421 50.897 124.869 51.0821 125.2 51.4111C125.531 51.7401 125.718 52.1862 125.718 52.6515V57.5657C125.719 57.8448 125.83 58.1125 126.029 58.3099C126.227 58.5073 126.497 58.6184 126.778 58.6187H132.061C134.78 58.6218 137.386 59.6967 139.309 61.6075C141.231 63.5184 142.313 66.1093 142.316 68.8117V79.3283C142.315 80.1658 141.98 80.9688 141.384 81.5611C140.788 82.1533 139.98 82.4864 139.138 82.4874Z" fill="#3F3D56"/>
<path id="Vector_11" d="M51.5586 190.949H22.601V201.48H51.5586V190.949Z" fill="#6C63FF"/>
<path id="Vector_12" d="M51.5586 225.348H22.601V235.879H51.5586V225.348Z" fill="#6C63FF"/>
<path id="shelf" d="M228.129 416.298H12.0068C8.82349 416.294 5.77159 415.036 3.52065 412.799C1.26972 410.561 0.00356866 407.528 0 404.364V11.9343C0.00356866 8.77025 1.26972 5.73677 3.52065 3.49941C5.77159 1.26206 8.82349 0.00354712 12.0068 0H228.129C231.312 0.00356196 234.364 1.26207 236.615 3.49942C238.866 5.73677 240.132 8.77025 240.136 11.9343V404.364C240.132 407.528 238.866 410.561 236.615 412.799C234.364 415.036 231.312 416.294 228.129 416.298ZM12.0068 1.40404C9.19801 1.4072 6.50517 2.51765 4.51906 4.49178C2.53294 6.46591 1.41574 9.1425 1.41256 11.9343V404.364C1.41574 407.155 2.53294 409.832 4.51906 411.806C6.50517 413.78 9.19801 414.891 12.0068 414.894H228.129C230.938 414.891 233.631 413.78 235.617 411.806C237.603 409.832 238.72 407.155 238.723 404.364V11.9343C238.72 9.1425 237.603 6.46591 235.617 4.49178C233.631 2.51765 230.938 1.4072 228.129 1.40404H12.0068Z" fill="#3F3D56"/>
<path id="Vector_13" d="M239.43 81.0501H0.706284V82.4541H239.43V81.0501Z" fill="#3F3D56"/>
<path id="Vector_14" d="M239.43 165.315H0.706284V166.719H239.43V165.315Z" fill="#3F3D56"/>
<path id="Vector_15" d="M239.43 249.579H0.706284V250.983H239.43V249.579Z" fill="#3F3D56"/>
<path id="Vector_16" d="M239.43 333.844H0.706284V335.248H239.43V333.844Z" fill="#3F3D56"/>
<path id="Vector_17" d="M49.4397 251.323H25.4262C24.4899 251.322 23.5923 250.952 22.9303 250.294C22.2682 249.636 21.8958 248.744 21.8947 247.813V179.717C21.8958 178.787 22.2682 177.894 22.9303 177.236C23.5923 176.578 24.4899 176.208 25.4262 176.207H49.4397C50.376 176.208 51.2736 176.578 51.9356 177.236C52.5977 177.894 52.9701 178.787 52.9712 179.717V247.813C52.9701 248.744 52.5977 249.636 51.9356 250.294C51.2736 250.952 50.376 251.322 49.4397 251.323ZM25.4262 177.611C24.8644 177.612 24.3258 177.834 23.9286 178.229C23.5314 178.623 23.3079 179.159 23.3073 179.717V247.813C23.3079 248.372 23.5314 248.907 23.9286 249.302C24.3258 249.696 24.8644 249.919 25.4262 249.919H49.4397C50.0015 249.919 50.5401 249.696 50.9373 249.302C51.3345 248.907 51.558 248.372 51.5586 247.813V179.717C51.558 179.159 51.3345 178.623 50.9373 178.229C50.5401 177.834 50.0015 177.612 49.4397 177.611H25.4262Z" fill="#3F3D56"/>
<path id="Vector_18" d="M96.0544 190.949H67.0968V201.48H96.0544V190.949Z" fill="#6C63FF"/>
<path id="Vector_19" d="M96.0544 225.348H67.0968V235.879H96.0544V225.348Z" fill="#6C63FF"/>
<path id="Vector_20" d="M93.9355 251.323H69.9219C68.9857 251.322 68.0881 250.952 67.426 250.294C66.764 249.636 66.3916 248.744 66.3905 247.813V179.717C66.3916 178.787 66.764 177.894 67.426 177.236C68.0881 176.578 68.9857 176.208 69.9219 176.207H93.9355C94.8718 176.208 95.7694 176.578 96.4314 177.236C97.0934 177.894 97.4658 178.787 97.4669 179.717V247.813C97.4658 248.744 97.0934 249.636 96.4314 250.294C95.7694 250.952 94.8718 251.322 93.9355 251.323ZM69.9219 177.611C69.3602 177.612 68.8216 177.834 68.4244 178.229C68.0271 178.623 67.8037 179.159 67.8031 179.717V247.813C67.8037 248.372 68.0271 248.907 68.4244 249.302C68.8216 249.696 69.3602 249.919 69.9219 249.919H93.9355C94.4973 249.919 95.0358 249.696 95.4331 249.302C95.8303 248.907 96.0537 248.372 96.0544 247.813V179.717C96.0537 179.159 95.8303 178.623 95.4331 178.229C95.0358 177.834 94.4973 177.612 93.9355 177.611H69.9219Z" fill="#3F3D56"/>
<path id="Vector_21" d="M166.683 106.005H137.725V116.535H166.683V106.005Z" fill="#6C63FF"/>
<path id="Vector_22" d="M166.683 140.404H137.725V150.934H166.683V140.404Z" fill="#6C63FF"/>
<path id="Vector_23" d="M164.564 166.379H140.55C139.614 166.378 138.716 166.008 138.054 165.35C137.392 164.691 137.02 163.799 137.019 162.869V94.7727C137.02 93.8421 137.392 92.9499 138.054 92.2919C138.716 91.6339 139.614 91.2637 140.55 91.2626H164.564C165.5 91.2637 166.398 91.6339 167.06 92.2919C167.722 92.9499 168.094 93.8421 168.095 94.7727V162.869C168.094 163.799 167.722 164.691 167.06 165.35C166.398 166.008 165.5 166.378 164.564 166.379ZM140.55 92.6667C139.988 92.6673 139.45 92.8894 139.053 93.2842C138.655 93.679 138.432 94.2144 138.431 94.7727V162.869C138.432 163.427 138.655 163.962 139.053 164.357C139.45 164.752 139.988 164.974 140.55 164.975H164.564C165.125 164.974 165.664 164.752 166.061 164.357C166.459 163.962 166.682 163.427 166.683 162.869V94.7727C166.682 94.2144 166.459 93.679 166.061 93.2842C165.664 92.8894 165.125 92.6673 164.564 92.6667H140.55Z" fill="#3F3D56"/>
<path id="Vector_24" d="M211.178 106.005H182.221V116.535H211.178V106.005Z" fill="#6C63FF"/>
<path id="Vector_25" d="M211.178 140.404H182.221V150.934H211.178V140.404Z" fill="#6C63FF"/>
<path id="Vector_26" d="M209.059 166.379H185.046C184.11 166.378 183.212 166.008 182.55 165.35C181.888 164.691 181.516 163.799 181.514 162.869V94.7727C181.516 93.8421 181.888 92.9499 182.55 92.2919C183.212 91.6339 184.11 91.2637 185.046 91.2626H209.059C209.996 91.2637 210.893 91.6339 211.555 92.2919C212.217 92.9499 212.59 93.8421 212.591 94.7727V162.869C212.59 163.799 212.217 164.691 211.555 165.35C210.893 166.008 209.996 166.378 209.059 166.379ZM185.046 92.6667C184.484 92.6673 183.946 92.8894 183.548 93.2842C183.151 93.679 182.928 94.2144 182.927 94.7727V162.869C182.928 163.427 183.151 163.962 183.548 164.357C183.946 164.752 184.484 164.974 185.046 164.975H209.059C209.621 164.974 210.16 164.752 210.557 164.357C210.954 163.962 211.178 163.427 211.178 162.869V94.7727C211.178 94.2144 210.954 93.679 210.557 93.2842C210.16 92.8894 209.621 92.6673 209.059 92.6667H185.046Z" fill="#3F3D56"/>
<g id="book2">
<path id="Vector_27" d="M131.573 184.661L104.466 194.785L108.193 204.643L135.3 194.518L131.573 184.661Z" fill="#6C63FF"/>
<path id="Vector_28" d="M143.747 216.861L116.64 226.986L120.366 236.843L147.473 226.719L143.747 216.861Z" fill="#6C63FF"/>
<path id="Vector_29" d="M127.232 250.539C126.514 250.538 125.813 250.319 125.223 249.912C124.633 249.505 124.182 248.93 123.929 248.261L99.83 184.518C99.5018 183.646 99.5347 182.681 99.9215 181.833C100.308 180.986 101.017 180.326 101.893 179.997L124.373 171.601C124.807 171.439 125.269 171.364 125.732 171.379C126.196 171.394 126.652 171.5 127.074 171.691C127.496 171.881 127.877 172.152 128.194 172.489C128.51 172.826 128.757 173.221 128.92 173.653L153.019 237.397C153.347 238.268 153.314 239.233 152.927 240.081C152.541 240.928 151.831 241.588 150.956 241.917H150.955L128.476 250.313C128.079 250.462 127.657 250.539 127.232 250.539ZM125.616 172.78C125.361 172.78 125.108 172.826 124.869 172.916L102.39 181.311C101.865 181.509 101.439 181.905 101.207 182.413C100.975 182.922 100.955 183.501 101.152 184.024L125.251 247.768C125.349 248.027 125.497 248.264 125.687 248.466C125.877 248.668 126.105 248.831 126.359 248.945C126.612 249.059 126.886 249.123 127.164 249.132C127.442 249.141 127.719 249.096 127.98 248.998L150.459 240.603C150.984 240.406 151.41 240.009 151.642 239.501C151.874 238.992 151.894 238.413 151.697 237.89L127.598 174.146C127.446 173.745 127.175 173.4 126.821 173.156C126.467 172.912 126.047 172.781 125.616 172.78Z" fill="#3F3D56"/>
</g>
<g id="book1">
<path id="Vector_30" d="M34.1062 101.12L6.99927 111.245L10.7258 121.102L37.8328 110.978L34.1062 101.12Z" fill="#6C63FF"/>
<path id="Vector_31" d="M46.2797 133.321L19.1727 143.445L22.8993 153.303L50.0062 143.178L46.2797 133.321Z" fill="#6C63FF"/>
<path id="Vector_32" d="M29.7655 166.999C29.0473 166.997 28.3466 166.779 27.7564 166.372C27.1663 165.965 26.7147 165.389 26.4616 164.721L2.3631 100.977C2.03488 100.106 2.06779 99.1403 2.45461 98.2929C2.84142 97.4455 3.55056 96.7852 4.42651 96.4568L26.9056 88.061C27.3397 87.8988 27.8018 87.8232 28.2653 87.8385C28.7288 87.8538 29.1847 87.9597 29.6071 88.1502C30.0294 88.3407 30.4098 88.612 30.7267 88.9486C31.0435 89.2853 31.2905 89.6807 31.4535 90.1122L55.552 153.856C55.8803 154.728 55.8474 155.693 55.4605 156.54C55.0737 157.388 54.3646 158.048 53.4886 158.377H53.4885L31.0095 166.772C30.6119 166.922 30.1905 166.998 29.7655 166.999ZM28.149 89.2395C27.894 89.2398 27.6411 89.2858 27.4025 89.3753L4.92355 97.7711C4.39793 97.9681 3.97239 98.3644 3.74028 98.8729C3.50817 99.3813 3.48844 99.9606 3.6854 100.484L27.7839 164.228C27.8818 164.486 28.03 164.724 28.2201 164.926C28.4102 165.128 28.6384 165.29 28.8918 165.405C29.1452 165.519 29.4188 165.582 29.6969 165.592C29.975 165.601 30.2522 165.555 30.5126 165.458L52.9916 157.062C53.5172 156.865 53.9428 156.469 54.1749 155.961C54.407 155.452 54.4267 154.873 54.2297 154.35L30.1312 90.6059C29.9794 90.2051 29.7084 89.8597 29.3544 89.6157C29.0003 89.3716 28.5799 89.2404 28.149 89.2395Z" fill="#3F3D56"/>
</g>
<g id="girl">
<g id="right-hand">
<path id="Vector_33" d="M345.57 253.058C346.604 253.456 347.714 253.624 348.821 253.55C349.927 253.476 351.004 253.162 351.975 252.629C352.947 252.097 353.789 251.359 354.442 250.468C355.096 249.577 355.544 248.555 355.757 247.473L415.959 209.719L405.001 197.457L349.245 238.448C347.392 238.214 345.518 238.662 343.976 239.71C342.434 240.757 341.332 242.33 340.879 244.131C340.426 245.932 340.653 247.835 341.518 249.48C342.382 251.126 343.824 252.399 345.57 253.058Z" fill="#FFB8B8"/>
<path id="Vector_34" d="M403.39 219.756C402.857 219.757 402.333 219.625 401.865 219.372C401.397 219.119 401 218.753 400.711 218.308L393.74 207.54C393.3 206.86 393.139 206.038 393.29 205.244C393.44 204.45 393.892 203.743 394.551 203.27L417.879 186.511C419.011 185.697 420.296 185.118 421.657 184.807C423.018 184.495 424.428 184.459 425.804 184.699C427.18 184.939 428.493 185.451 429.666 186.204C430.839 186.957 431.849 187.937 432.634 189.085C433.42 190.233 433.966 191.526 434.24 192.887C434.514 194.248 434.511 195.65 434.23 197.01C433.95 198.37 433.397 199.661 432.606 200.805C431.815 201.949 430.801 202.924 429.625 203.672L405.096 219.26C404.587 219.584 403.995 219.757 403.39 219.756Z" fill="#2F2E41"/>
</g>
<path id="Vector_35" d="M413.806 407.768L405.148 407.768L401.028 374.571L413.809 374.571L413.806 407.768Z" fill="#FFB8B8"/>
<path id="Vector_36" d="M398.963 405.309H415.662V415.76H388.448C388.448 414.387 388.72 413.028 389.249 411.76C389.777 410.492 390.552 409.34 391.528 408.37C392.504 407.399 393.663 406.629 394.939 406.104C396.215 405.579 397.582 405.309 398.963 405.309Z" fill="#2F2E41"/>
<path id="Vector_37" d="M454.23 401.334L445.893 403.66L432.899 372.806L445.203 369.372L454.23 401.334Z" fill="#FFB8B8"/>
<path id="Vector_38" d="M439.27 402.954L455.347 398.468L458.189 408.53L431.988 415.84C431.615 414.519 431.507 413.138 431.671 411.775C431.835 410.412 432.268 409.095 432.944 407.898C433.62 406.702 434.527 405.649 435.612 404.801C436.697 403.952 437.94 403.325 439.27 402.954Z" fill="#2F2E41"/>
<path id="Vector_39" d="M399.658 402.748C398.693 402.744 397.763 402.382 397.052 401.732C396.341 401.082 395.901 400.191 395.817 399.235C394.276 381.835 386.546 294.142 385.697 276.433C384.755 256.756 401.23 225.627 401.397 225.315L401.511 225.101L409.654 226.112V227.053L417.405 227.96L432.405 229.403L436.7 281.576L438.599 316.959L456.439 389.228C456.641 390.028 456.518 390.875 456.097 391.586C455.676 392.298 454.991 392.816 454.188 393.028L438.662 397.237C437.855 397.452 436.995 397.344 436.267 396.936C435.539 396.528 435.001 395.852 434.769 395.054L420.151 344.013C420.08 343.766 419.921 343.553 419.703 343.414C419.485 343.276 419.224 343.221 418.969 343.261C418.714 343.3 418.482 343.431 418.317 343.628C418.152 343.826 418.065 344.077 418.073 344.333L419.619 394.103C419.627 394.614 419.529 395.122 419.333 395.594C419.137 396.066 418.845 396.494 418.477 396.85C414.918 400.172 405.514 401.946 400.225 402.707C400.038 402.734 399.848 402.748 399.658 402.748Z" fill="#2F2E41"/>
<path id="Vector_40" d="M446.313 183.503C443.849 180.95 427.615 184.458 424.011 188.219L399.336 228.309L440.144 235.855L449.16 184.918L446.313 183.503Z" fill="#6C63FF"/>
<path id="Vector_41" d="M435.617 285.357C434.738 285.357 433.865 285.213 433.034 284.929C430.663 284.121 427.757 283.275 424.397 282.416C409.683 278.655 404.488 266.614 408.956 246.627L409.069 246.12C413.266 227.16 421.175 209.207 432.346 193.284L434.077 190.813C436.165 187.832 439.09 185.527 442.486 184.185C445.882 182.842 449.6 182.521 453.178 183.262C459.799 184.62 463.354 186.587 463.744 189.109C464.51 194.058 449.722 253.884 443.328 279.376C442.899 281.086 441.907 282.604 440.51 283.688C439.112 284.772 437.389 285.359 435.617 285.357L435.617 285.357Z" fill="#2F2E41"/>
<path id="Vector_42" d="M384.926 277.676C384.542 277.676 384.159 277.617 383.793 277.501L379.023 275.984C378.53 275.828 378.076 275.57 377.688 275.229C377.301 274.887 376.99 274.469 376.775 274.001C376.559 273.533 376.444 273.026 376.438 272.511C376.431 271.997 376.532 271.486 376.735 271.013L402.042 211.97C406.891 200.707 415.369 191.366 426.143 185.415H426.143C426.299 185.329 426.471 185.277 426.649 185.26C426.826 185.244 427.005 185.264 427.175 185.319C427.331 185.368 427.474 185.449 427.596 185.557C427.719 185.665 427.817 185.797 427.885 185.945C430.861 192.453 414.661 223.253 401.645 248C394.979 260.672 389.223 271.617 388.568 274.737C388.393 275.569 387.935 276.315 387.272 276.85C386.609 277.385 385.781 277.677 384.926 277.676Z" fill="#2F2E41"/>
<g id="left-hand">
<path id="Vector_43" d="M477.56 350.388L443.943 310.955L464.342 286.353C464.641 285.992 465.017 285.702 465.443 285.503C465.868 285.304 466.333 285.202 466.803 285.203C467.274 285.205 467.738 285.31 468.163 285.511C468.587 285.712 468.961 286.005 469.258 286.367L500.124 324.019L477.56 350.388Z" fill="#6C63FF"/>
<path id="Vector_44" d="M445.3 311.248C445.795 310.361 446.41 309.546 447.126 308.824L466.597 289.204C467.359 288.431 468.387 287.973 469.475 287.919C471.7 287.815 475.348 288.038 476.365 290.464L450.079 311.842L445.3 311.248Z" fill="#F2F2F2"/>
<path id="Vector_45" d="M478.728 358.732C477.229 358.687 475.772 358.229 474.52 357.407L474.427 357.312L443.639 310.509L448.748 310.018L476.128 288.79C476.474 288.522 476.871 288.328 477.296 288.22C477.721 288.112 478.164 288.093 478.596 288.164C479.029 288.234 479.442 288.392 479.81 288.629C480.178 288.866 480.493 289.176 480.735 289.539L510.664 334.565C511.123 335.261 511.289 336.108 511.126 336.924C510.962 337.739 510.482 338.458 509.79 338.926L480.828 358.337C480.16 358.601 479.447 358.735 478.728 358.732Z" fill="#6C63FF"/>
<path id="Vector_46" d="M467.839 326.716C467.549 326.716 467.264 326.646 467.008 326.511C466.752 326.376 466.534 326.18 466.372 325.942L462.835 320.72C462.574 320.333 462.478 319.86 462.567 319.403C462.657 318.946 462.925 318.544 463.313 318.283L481.459 306.141C481.847 305.882 482.324 305.787 482.783 305.876C483.242 305.965 483.647 306.232 483.91 306.617L487.446 311.839C487.707 312.225 487.803 312.699 487.714 313.155C487.624 313.612 487.356 314.015 486.968 314.275L468.822 326.417C468.532 326.612 468.189 326.716 467.839 326.716Z" fill="#3F3D56"/>
<path id="Vector_47" d="M463.221 291.13C464.11 290.471 464.843 289.626 465.368 288.654C465.892 287.683 466.197 286.609 466.259 285.508C466.321 284.407 466.139 283.306 465.727 282.283C465.314 281.259 464.681 280.338 463.872 279.584L463.671 208.832L447.398 211.546L452.721 280.275C451.536 281.71 450.923 283.527 450.996 285.382C451.07 287.237 451.826 289 453.12 290.338C454.414 291.676 456.158 292.496 458.019 292.642C459.881 292.788 461.732 292.25 463.221 291.13Z" fill="#FFB8B8"/>
<path id="Vector_48" d="M449.972 226.385C449.165 226.385 448.389 226.08 447.8 225.532C447.212 224.984 446.855 224.234 446.801 223.434L444.909 194.886C444.73 192.139 445.654 189.434 447.479 187.364C449.304 185.294 451.881 184.027 454.644 183.843C456.063 183.75 457.486 183.946 458.825 184.419C460.165 184.892 461.394 185.631 462.436 186.593C463.478 187.554 464.312 188.716 464.886 190.009C465.46 191.302 465.763 192.698 465.776 194.111L466.033 223.048C466.039 223.884 465.712 224.688 465.124 225.285C464.535 225.882 463.733 226.224 462.892 226.235L450.01 226.385L449.972 226.385Z" fill="#2F2E41"/>
</g>
<g id="head">
<path id="Vector_49" d="M442.839 175.505C454.931 175.505 464.734 165.762 464.734 153.742C464.734 141.723 454.931 131.98 442.839 131.98C430.747 131.98 420.944 141.723 420.944 153.742C420.944 165.762 430.747 175.505 442.839 175.505Z" fill="#2F2E41"/>
<path id="Vector_50" d="M438.329 176.612C447.909 176.612 455.676 168.892 455.676 159.37C455.676 149.847 447.909 142.127 438.329 142.127C428.748 142.127 420.982 149.847 420.982 159.37C420.982 168.892 428.748 176.612 438.329 176.612Z" fill="#FFB8B8"/>
<path id="Vector_51" d="M452.752 171.435C454.046 167.342 455.233 162.517 452.673 159.063C450.828 156.575 447.516 155.612 444.409 155.474C441.303 155.336 438.187 155.859 435.087 155.615C431.987 155.37 428.711 154.153 427.136 151.488C425.094 148.032 426.823 143.272 430.106 140.944C433.389 138.616 437.726 138.291 441.721 138.834C446.777 139.43 451.53 141.543 455.347 144.892C459.061 148.299 461.481 153.209 461.373 158.232C461.266 163.254 458.432 168.255 453.916 170.51" fill="#2F2E41"/>
<path id="Vector_52" d="M448.427 133.759C444.274 132.487 442.358 127.03 444.216 123.125C446.073 119.221 450.82 117.176 455.131 117.72C459.441 118.264 463.24 121.013 465.86 124.458C468.48 127.904 470.06 132.011 471.377 136.127C472.694 140.243 473.79 144.448 475.589 148.379C478.444 154.42 482.848 159.607 488.359 163.42C493.869 167.233 500.293 169.538 506.983 170.102C509.899 170.312 512.926 170.161 515.583 168.95C518.241 167.738 520.47 165.295 520.768 162.404C522.28 172.674 516.269 183.588 506.751 187.856C497.232 192.124 485.022 189.378 478.278 181.454C471.688 173.71 470.667 162.776 470.826 152.634C470.869 149.853 470.972 147.019 470.199 144.346C469.426 141.673 467.597 139.131 464.932 138.282C462.782 137.597 460.454 138.091 458.249 138.577C456.045 139.062 453.705 139.53 451.57 138.798C449.436 138.066 447.718 135.653 448.578 133.578" fill="#2F2E41"/>
</g>
</g>
<path id="Vector_53" d="M517.057 417H330.598C330.411 417 330.231 416.926 330.099 416.794C329.966 416.663 329.892 416.484 329.892 416.298C329.892 416.112 329.966 415.933 330.099 415.802C330.231 415.67 330.411 415.596 330.598 415.596H517.057C517.244 415.596 517.424 415.67 517.556 415.802C517.689 415.933 517.763 416.112 517.763 416.298C517.763 416.484 517.689 416.663 517.556 416.794C517.424 416.926 517.244 417 517.057 417Z" fill="#CCCCCC"/>
</g>
<defs>
<clipPath id="clip0">
<rect width="521" height="417" fill="white"/>
</clipPath>
</defs>
</svg>
